<?xml version="1.0" encoding="UTF-8" standalone="no"?>
<svg
   viewBox="0 0 445.89 134.78"
   version="1.1"
   id="svg38"
   sodipodi:docname="sangawa-logo_2024.svg"
   inkscape:version="1.1.2 (b8e25be833, 2022-02-05)"
   xmlns:inkscape="http://www.inkscape.org/namespaces/inkscape"
   xmlns:sodipodi="http://sodipodi.sourceforge.net/DTD/sodipodi-0.dtd"
   xmlns="http://www.w3.org/2000/svg"
   xmlns:svg="http://www.w3.org/2000/svg">
  <sodipodi:namedview
     id="namedview40"
     pagecolor="#ffffff"
     bordercolor="#666666"
     borderopacity="1.0"
     inkscape:pageshadow="2"
     inkscape:pageopacity="0.0"
     inkscape:pagecheckerboard="0"
     showgrid="false"
     inkscape:zoom="1.985462"
     inkscape:cx="251.07506"
     inkscape:cy="183.58447"
     inkscape:window-width="1920"
     inkscape:window-height="991"
     inkscape:window-x="-9"
     inkscape:window-y="-9"
     inkscape:window-maximized="1"
     inkscape:current-layer="layer1" />
  <defs
     id="defs4">
    <style
       id="style2">.cls-1{fill:#ec1c24;}</style>
  </defs>
  <g
     id="Layer_2"
     data-name="Layer 2">
    <g
       id="Layer_1-2"
       data-name="Layer 1">
      <path
         class="cls-1"
         d="M82.15,75.29h78c3.09,0,4.59,1.53,4.58,4.67,0,4.64-.05,9.29-.05,13.93q0,14.35,0,28.7c0,3.27-1.32,4.57-4.62,4.57q-51.81,0-103.62,0a7,7,0,0,1-2.84-.77c-7-3.3-12.47-8.54-17.65-14.14a10.85,10.85,0,0,0-2.58-2,44,44,0,0,1-12.64-11,23.58,23.58,0,0,0-9-7.44,12.85,12.85,0,0,1-4.17-3.49c-2.14-2.46-4-5.13-6-7.71a9.8,9.8,0,0,1-.73-1C-.76,77.11.1,75.47,3,75.3c.51,0,1,0,1.52,0ZM92.35,95v0q-31.59,0-63.18,0a5.22,5.22,0,0,0-1.61.58,5.45,5.45,0,0,0,.74,1.51c1.37,1.36,2.86,2.6,4.22,4a9.35,9.35,0,0,0,7.28,2.68c1,0,2-.07,3-.07H155.67a1.59,1.59,0,0,0,1.78-1.8c0-1.38,0-2.76,0-4.14,0-2.53-.21-2.73-2.76-2.73Zm8.82,15.46h-53c-.6,0-1.2,0-1.8,0-1.08.09-1.35.59-.66,1.4a20.8,20.8,0,0,0,2.82,2.81c1.73,1.35,3.63,2.5,5.38,3.84a8.25,8.25,0,0,0,5.25,1.69q47.6,0,95.18,0h1.24a1.63,1.63,0,0,0,1.84-1.88c0-1.71,0-3.41,0-5.11,0-2.51-.21-2.72-2.77-2.72Zm-16-28v-.11H74.31q-29.94,0-59.87,0a1.81,1.81,0,0,0-1.36.81c-.15.3.22,1.11.58,1.34,3,1.92,5.87,3.73,9.72,3.72q65.18-.12,130.36,0c.5,0,1,0,1.52,0,1.76-.07,2.14-.46,2.2-2.25,0-.32,0-.64,0-1,0-2-.35-2.33-2.32-2.34-10.12,0-20.23-.13-30.34-.15C111.6,82.45,98.4,82.47,85.21,82.47Z"
         id="path6" />
      <path
         class="cls-1"
         d="M328.7,41.12c.88-2,1.73-4.12,2.66-6.15.82-1.79,1.77-3.53,2.59-5.32a2,2,0,0,0,.13-1.48c-1.71-3.06-3.57-6-6.88-7.67-1.05-.52-.46-1.38-.45-2.06s0-1.61,1.09-2c3.81-1.21,7.59-2.51,11.39-3.77,2.53-.85,5.07-1.66,7.58-2.54a1.18,1.18,0,0,1,1.6.51,6.67,6.67,0,0,1,1.44,4.89c-.59,5.69,1,11.12,2.59,16.49.93,3.06,2,6.07,3.15,9.36a4.55,4.55,0,0,0,.54-.73c3-7.54,6-15.08,7.63-23.09a18,18,0,0,0-2-13.16c-.59-1,.89-2.73,2.38-2.76,2,0,4,0,5.94,0s4,.14,5.92,0a4,4,0,0,1,3.86,2c-5.88,9.43-8.9,20-12,30.4-2,6.54-3.5,13.21-5.1,19.85-.69,2.89-1.06,5.87.14,8.9-.63,0-1.08.07-1.53.07H347.78c-2.08,0-3-1.35-3-3.37a32.1,32.1,0,0,0-.68-7.9,68.75,68.75,0,0,0-3.78-10.47c-2.62,7-6.64,13.61-5,21.66-.41,0-.85.08-1.29.08H320.45a2.79,2.79,0,0,1-2.85-3.2A25.28,25.28,0,0,0,316.48,50a144.34,144.34,0,0,0-14-33.76,17.22,17.22,0,0,0-5.59-6.17c-.44-.28-.23-1.62-.26-2.47s.49-1.16,1.24-1.41c5.15-1.68,10.3-3.4,15.44-5.11L314.8.59c3.16-1,3.47-.91,4.93,2.14a1.47,1.47,0,0,1,.14.77c-1.1,8.5.56,16.64,3.32,24.6,1.53,4.41,3.36,8.72,5.05,13.08Z"
         id="path8" />
      <path
         class="cls-1"
         d="M174,60.94a4.06,4.06,0,0,1-3.72,2c-4.27-.16-8.56-.2-12.83,0a4.5,4.5,0,0,1-4.54-2.82A206.18,206.18,0,0,0,139,36.94c-2-2.87-4.19-5.65-6.41-8.64-1.39,6.38.92,25.84,3.76,32.63a4.3,4.3,0,0,1-4.2,2c-3.3-.16-6.62-.13-9.93,0-1.85.07-3.35-.27-4.34-2,2.34-5,2.84-10.54,3.15-16,.49-8.67.59-17.36.92-26a3.21,3.21,0,0,0-1.69-3.19,34.93,34.93,0,0,0-4.07-2,1.2,1.2,0,0,1-.87-1.44,3.21,3.21,0,0,1,2.22-3.26c5.91-2.42,11.72-5.09,17.57-7.66.41-.18.84-.34,1.41-.56a164.36,164.36,0,0,0,21,38.45c0-2.18.07-4.37,0-6.54-.19-4.55-.39-9.09-.74-13.62-.39-5.08-.85-10.17-3.12-14.87-.39-.82,1.37-2.45,2.67-2.46,4,0,8,.08,12-.05a3.91,3.91,0,0,1,3.29,1.58,1.09,1.09,0,0,1,.2.94c-1.87,4.09-2.4,8.51-2.62,12.88-.58,11.33-.85,22.68-1.28,34a4.58,4.58,0,0,0,1,3.16C170.6,56.41,172.25,58.67,174,60.94Z"
         id="path10" />
      <path
         class="cls-1"
         d="M228.89,60.93c-3.53.58-6.86,1.26-10.23,1.67-4.6.55-9.22,1.13-13.85,1.26-7.25.21-13.1-2.85-17.44-8.64-6-8-8.19-17-7.3-26.87a36.8,36.8,0,0,1,6.36-17.68C191,4,197.18.58,205.29.66a64,64,0,0,1,17.82,2.53c.35.11.7.22,1,.35a2.55,2.55,0,0,1,.41.26c-1.95,4.44-1.68,9.22-2,14.13-1.2,0-2.38.07-3.54,0-.32,0-.63-.54-.87-.89a58.83,58.83,0,0,0-4.42-6.42,10.21,10.21,0,0,0-4.33-2.51c-3.38-1.09-6.15.07-8.08,3.06a21.37,21.37,0,0,0-2.94,9A81.88,81.88,0,0,0,198.86,47c.6,3,1.55,6,3.89,8.21a6,6,0,0,0,5.2,1.64c2.4-.32,4-2.24,4.22-5.22.48-5.48-1-10.56-3.22-15.46-1-2.19,0-3.78,2.48-3.79,5.43,0,10.86.06,16.28,0,1.53,0,2.17,1,3,1.82.15.15,0,.7-.1,1a34,34,0,0,0-3.75,14.41C226.84,53.34,226.92,57.15,228.89,60.93Z"
         id="path12" />
      <path
         class="cls-1"
         d="M440.53,60.93a4.27,4.27,0,0,1-4.11,2q-7.65-.18-15.3,0c-1.51,0-2.25-.82-3.06-1.74-.15-.17,0-.65.06-1a17.69,17.69,0,0,0,.63-2A2.74,2.74,0,0,0,416.5,55a18.27,18.27,0,0,0-8.83.8,61.09,61.09,0,0,0-14.22,6.28A13.27,13.27,0,0,1,386.17,64a4.07,4.07,0,0,1-3.73-1.93c2-3.45,4.08-6.75,5.85-10.21,4.71-9.23,7.47-19.12,9.6-29.2.29-1.35.49-2.71.83-4a2.15,2.15,0,0,0-1-2.6c-1.37-.82-2.83-1.5-4.22-2.3-.44-.26-1.13-.74-1.1-1.06.11-1,.2-2.65.82-2.94,6.66-3.11,13.41-6,20.28-9C420.71,21.62,428.54,42.19,440.53,60.93ZM415.18,48.1c-3.49-6.68-6.84-13.09-10.26-19.65-1.78,7.15-3.48,14-5.19,20.89C404.63,48.13,409.62,46.56,415.18,48.1Z"
         id="path14" />
      <path
         class="cls-1"
         d="M112.9,61a4.37,4.37,0,0,1-4.08,2c-5.15-.13-10.3-.1-15.45,0-1.45,0-2.16-.83-2.94-1.71-.15-.18,0-.65,0-1a14.32,14.32,0,0,0,.58-2.52A2.38,2.38,0,0,0,88.85,55a16.74,16.74,0,0,0-7.51.45,61.05,61.05,0,0,0-15.55,6.63A12,12,0,0,1,58.65,64c-2.39-.18-2.4,0-4-2.12A78.46,78.46,0,0,0,65,41.74a146.73,146.73,0,0,0,6.09-23.41,2.46,2.46,0,0,0-.64-1.92,13.39,13.39,0,0,0-2.83-1.91c-.92-.5-1.93-.85-2.86-1.25a1.69,1.69,0,0,1-.11-.31c-.24-2.44,1-3.55,3.24-4.43,5.58-2.26,11-4.79,16.56-7.22.41-.18.84-.35,1.43-.59C93.07,21.6,100.88,42.17,112.9,61Zm-41-11.57C77,48.14,82,46.56,87.54,48.09,84,41.37,80.68,35,77.34,28.58c-1.06,3.62-1.73,7.08-2.58,10.5S72.89,45.84,71.9,49.38Z"
         id="path16" />
      <path
         class="cls-1"
         d="M267.08.71c7.21,21,15,41.52,27,60.2a4,4,0,0,1-3.74,2c-5.24-.13-10.49-.1-15.73,0-1.44,0-2.14-.85-2.95-1.69-.15-.16-.08-.59,0-.87.15-.52.43-1,.57-1.54A2.87,2.87,0,0,0,269.79,55a18.44,18.44,0,0,0-8.31.77A63.24,63.24,0,0,0,247,62.11,12.06,12.06,0,0,1,239.84,64c-2.33-.18-2.34,0-4-2.05.72-1,1.47-2.13,2.18-3.24,5.63-8.76,9.1-18.42,11.65-28.42,1-3.87,1.67-7.81,2.6-11.69a2,2,0,0,0-.91-2.48A29.86,29.86,0,0,0,247,13.75c-1.06-.43-1.14-1-1.11-2,0-1.59.84-2.24,2.2-2.82,5.84-2.49,11.63-5.09,17.44-7.64C266,1.13,266.45,1,267.08.71Zm-8.6,27.74c-1.78,7.13-3.49,14-5.18,20.81a71.89,71.89,0,0,1,7.33-1.5c2.55-.26,5.16-.06,7.89-.06Z"
         id="path18" />
      <path
         class="cls-1"
         d="M47.21,3.75c-2.1,4.55-1.66,9.36-2.11,14.19a26.36,26.36,0,0,1-3.34-.05c-.4-.05-.82-.59-1.08-1a54.31,54.31,0,0,0-3.75-5.73c-3.26-3.81-9.89-4.65-14.18-2a5.16,5.16,0,0,0-1.91,7.18A12.84,12.84,0,0,0,25,20.54a69.15,69.15,0,0,0,9.57,4.52c4.06,1.61,7.94,3.41,10.93,6.72a16.59,16.59,0,0,1,4.29,10.78c.17,4.07-.07,8.09-1.9,11.85a12.47,12.47,0,0,1-5.59,5.69,31.34,31.34,0,0,1-18.66,3.68C17.92,63.11,12.23,62,6.51,61.11a4,4,0,0,1-.75-.26c1.89-4.52,1.8-9.29,2-14.2a33.16,33.16,0,0,1,3.61.05c.35,0,.74.6.93,1a16.38,16.38,0,0,0,5.18,6.68A14,14,0,0,0,31.1,55.86c4.28-1.62,5.64-7,2.71-11A22.4,22.4,0,0,0,28.48,40a44.67,44.67,0,0,0-6.58-3.44,32.14,32.14,0,0,1-10.12-6.8C8,25.67,7.14,20.7,7.83,15.48,9,6.53,14.1,1.79,23.59.88a58.09,58.09,0,0,1,23,2.6A5.85,5.85,0,0,1,47.21,3.75Z"
         id="path20" />
      <path
         class="cls-1"
         d="M251.67,109.53c4.92,4.37,9.16,9.44,15.84,11.41v2.17c-3.94.1-7.2,2-10.62,3.63a33.39,33.39,0,0,1-4.44,1.45,2.75,2.75,0,0,1-2.79-.65,2.08,2.08,0,0,1-.83-1.87c.2-4.47-1.69-8.25-4-11.89-1.38.51-2.65.91-3.84,1.47a1.33,1.33,0,0,0-.41,1.21c.66,2,1.42,3.86,2.17,5.77a10.09,10.09,0,0,0,.65,1.17,3,3,0,0,1-3,1.72c-4.09-.1-8.18,0-12.28,0-1.92,0-2.46-1.08-2-2.88a53,53,0,0,0,2-10.36c.3-7.48.22-15,0-22.45a28.53,28.53,0,0,0-2.22-11c-.47-1.07.63-2.25,2.09-2.25q6,0,12,0c2.16,0,4.33-.09,6.47.11,7.17.67,13.63,7.34,14.23,14.52.63,7.57-2,13.68-8.22,18.12C252.25,109,252.05,109.21,251.67,109.53Zm-11.09.74a13.54,13.54,0,0,0,5.17-5.47c2.37-4.48,2.69-9.31,2.11-14.2a18.11,18.11,0,0,0-1.6-5.36A7.58,7.58,0,0,0,240.58,81Z"
         id="path22" />
      <path
         class="cls-1"
         d="M266.5,100.59a32.06,32.06,0,0,1,4.87-17.54c3.42-5.44,8.23-8.26,14.79-7.66a14.19,14.19,0,0,1,10.56,6.27c4.62,6.43,6.26,13.68,5.76,21.5A31.68,31.68,0,0,1,298,117.74c-3.82,6.31-9.48,9.08-16.21,7.92a14,14,0,0,1-8.85-5.4C268.39,114.48,266.53,107.83,266.5,100.59Zm23.69.06-.27-.05c-.16-3.16-.14-6.35-.55-9.48a48.47,48.47,0,0,0-1.88-7.85,3.07,3.07,0,0,0-3-2.33,3.15,3.15,0,0,0-3,2.32A27.66,27.66,0,0,0,280,88.65a84.35,84.35,0,0,0-.23,22.39,36,36,0,0,0,1.86,7,3,3,0,0,0,2.88,2.22,3.27,3.27,0,0,0,2.93-2.18,11,11,0,0,0,1.14-3.23C289.19,110.13,289.67,105.39,290.19,100.65Z"
         id="path24" />
      <path
         class="cls-1"
         d="M195.93,76.12c2.63,0,5.25,0,7.87,0a16.54,16.54,0,0,1,15.73,13.51c1.39,9.13-2.06,16.15-9.73,21-2.84,1.8-6.1,2.94-9.22,4.29-.76.33-1.22.66-.93,1.47.72,2,1.43,4,2.28,6,.56,1.28,0,2.65-1.47,2.66-4.6,0-9.2,0-13.8,0-1.37,0-1.94-1.32-1.61-2.64a68.86,68.86,0,0,0,1.95-9.25A125.21,125.21,0,0,0,187.29,91c-.29-4.35-.59-8.72-2.45-12.78-.39-.86.77-2.1,2-2.11C189.87,76.11,192.9,76.12,195.93,76.12ZM199.6,81v29.58c1.12-1,2-1.66,2.8-2.47,3.39-3.57,4.5-8,4.72-12.76a20.75,20.75,0,0,0-1.29-9.06A8.33,8.33,0,0,0,199.6,81Z"
         id="path26" />
      <path
         class="cls-1"
         d="M364.15,90.64c-3.18-3.73-6.92-6.46-11.69-7.53-1.21-.27-2.45-.37-3.68-.53-.77-.1-1.19.12-1.19,1,0,4.5,0,9,0,13.52,0,.86.31,1.1,1.15,1a10.45,10.45,0,0,0,8.6-5c.29-.46.57-.93.85-1.37,1.31.14,1.44.91,1.24,2q-1.29,6.9-2.53,13.81a1.91,1.91,0,0,1-1.69,1.79c-1.71-2.92-3.33-6-7.5-6.39-.05.52-.11.92-.11,1.32,0,4.32,0,8.64,0,13,0,1.13.36,1.42,1.44,1.34a20.51,20.51,0,0,0,13.74-6.53c.48-.49.94-1,1.4-1.48,1.35.77,1.54,1.7,1,3.11-1.26,3.3-2.39,6.65-3.46,10a1.67,1.67,0,0,1-1.95,1.38c-8.14,0-16.28,0-24.41,0-2.05,0-2.56-1-2.08-2.93a48.26,48.26,0,0,0,1.91-10c.27-7.75.21-15.52,0-23.27a26.7,26.7,0,0,0-2.2-10.6c-.34-.75.52-2,1.47-2.18a4.58,4.58,0,0,1,.83,0c8.18,0,16.36,0,24.55,0a1.63,1.63,0,0,1,1.85,1.33c1.08,3.35,2.27,6.68,3.43,10C365.74,89.28,365.76,89.27,364.15,90.64Z"
         id="path28" />
      <path
         class="cls-1"
         d="M444.65,90.6c-3.41-3.46-6.51-7.41-12.07-8.1,0,.68,0,1.18,0,1.67.29,9.41.43,18.83.93,28.23.19,3.54,1.17,7,1.83,10.54a2,2,0,0,1-1.77,2.12c-4.64,0-9.28,0-13.93,0a1.92,1.92,0,0,1-1.63-2.51,60.55,60.55,0,0,0,1.6-9.19c.48-9.77.69-19.56,1-29.34,0-.44-.05-.89-.09-1.52-5.43.73-8.54,4.59-11.93,8.09-1.28-.7-1.56-1.59-1-3,1.28-3.39,2.42-6.83,3.56-10.28a1.45,1.45,0,0,1,1.65-1.2q13.86.06,27.73,0a1.38,1.38,0,0,1,1.55,1.14c1.12,3.44,2.25,6.89,3.57,10.26A2.18,2.18,0,0,1,444.65,90.6Z"
         id="path30" />
      <path
         class="cls-1"
         d="M403.15,77.59c-.43,3.89-.84,7.6-1.25,11.34-2.26.53-2.41.34-3.49-1.63a19.7,19.7,0,0,0-3.31-4.68c-3-2.91-7-2.21-8.54,1.63a32.71,32.71,0,0,0-2.1,8.63,64.43,64.43,0,0,0,.71,20.17,17,17,0,0,0,1.44,4.14c1.73,3.42,5.27,4.22,8.14,1.67a18.73,18.73,0,0,0,3.58-4.81c1.22-2.13,1.17-2.25,3.56-1.8.42,3.74.83,7.45,1.26,11.35-4.95,1.29-10.24,2.72-15.79,2.16a14.18,14.18,0,0,1-9.93-5.87c-8.17-10.47-8.07-28.42.2-38.82a14.24,14.24,0,0,1,11.28-5.75,40.08,40.08,0,0,1,14,2.15C403.1,77.54,403.29,77.66,403.15,77.59Z"
         id="path32" />
      <path
         class="cls-1"
         d="M305.4,133.29c3.44-3.74,4.37-8.4,5-13.1A150.71,150.71,0,0,0,310.32,86a55.57,55.57,0,0,0-1.83-7.73,2,2,0,0,1,1.76-2.09c4.64,0,9.29,0,13.93,0a1.78,1.78,0,0,1,1.57,2.48,29.63,29.63,0,0,0-2.13,11c-.23,11.25-.29,22.51-.37,33.76a2.32,2.32,0,0,1-1.28,2.24c-2,1.28-3.67,2.89-5.5,4.35-1.46,1.18-2.87,2.45-4.43,3.49C309.31,135.29,308.33,135.2,305.4,133.29Z"
         id="path34" />
    </g>
  </g>
  <g
     inkscape:groupmode="layer"
     id="layer1"
     inkscape:label="Dates">
    <text
       xml:space="preserve"
       style="font-style:normal;font-variant:normal;font-weight:bold;font-stretch:normal;font-size:37.3333px;line-height:1;font-family:Impact;-inkscape-font-specification:'Impact Bold';letter-spacing:0.95px"
       x="74.038185"
       y="181.31801"
       id="text24446"><tspan
         sodipodi:role="line"
         id="tspan24444"
         x="74.038185"
         y="181.31801">February 9-11 2024</tspan></text>
  </g>
</svg>
